<svg width="100%" viewBox="0 0 680 510" xmlns="http://www.w3.org/2000/svg" font-family="Segoe UI, Arial, sans-serif">
<defs>
  <marker id="arrow" viewBox="0 0 10 10" refX="8" refY="5" markerWidth="6" markerHeight="6" orient="auto-start-reverse">
    <path d="M2 1L8 5L2 9" fill="none" stroke="#444" stroke-width="1.5" stroke-linecap="round" stroke-linejoin="round"/>
  </marker>
</defs>

<!-- Black background -->
<rect width="680" height="510" fill="#0d0d0d"/>

<!-- Section labels -->
<text x="44" y="19"  font-size="10" fill="#555" font-family="Segoe UI, Arial, sans-serif">Data sources</text>
<text x="44" y="100" font-size="10" fill="#555" font-family="Segoe UI, Arial, sans-serif">Ingestion</text>
<text x="44" y="183" font-size="10" fill="#555" font-family="Segoe UI, Arial, sans-serif">Storage · ADLS Gen2 · Delta Lake</text>
<text x="44" y="264" font-size="10" fill="#555" font-family="Segoe UI, Arial, sans-serif">Processing · Azure Databricks · Medallion</text>
<text x="44" y="345" font-size="10" fill="#555" font-family="Segoe UI, Arial, sans-serif">Serving</text>
<text x="44" y="414" font-size="10" fill="#555" font-family="Segoe UI, Arial, sans-serif">CI/CD</text>

<!-- Dashed section containers -->
<rect x="44" y="23"  width="592" height="68" rx="6" fill="none" stroke="#2a2a2a" stroke-width="0.8" stroke-dasharray="4 3"/>
<rect x="44" y="104" width="592" height="70" rx="6" fill="none" stroke="#2a2a2a" stroke-width="0.8" stroke-dasharray="4 3"/>
<rect x="44" y="187" width="592" height="68" rx="6" fill="none" stroke="#2a2a2a" stroke-width="0.8" stroke-dasharray="4 3"/>
<rect x="44" y="268" width="592" height="68" rx="6" fill="none" stroke="#2a2a2a" stroke-width="0.8" stroke-dasharray="4 3"/>
<rect x="44" y="349" width="592" height="56" rx="6" fill="none" stroke="#2a2a2a" stroke-width="0.8" stroke-dasharray="4 3"/>
<rect x="44" y="418" width="592" height="68" rx="6" fill="none" stroke="#2a2a2a" stroke-width="0.8" stroke-dasharray="4 3"/>

<!-- DATA SOURCES -->
<!-- Spotify API -->
<rect x="78" y="31" width="155" height="50" rx="8" fill="#2a1208" stroke="#D85A30" stroke-width="1"/>
<text x="155" y="51" text-anchor="middle" font-size="13" font-weight="600" fill="#F0997B" font-family="Segoe UI, Arial, sans-serif">Spotify API</text>
<text x="155" y="69" text-anchor="middle" font-size="10" fill="#D85A30" font-family="Segoe UI, Arial, sans-serif">Raw API extraction</text>

<!-- Azure SQL DB -->
<rect x="447" y="31" width="155" height="50" rx="8" fill="#2a1208" stroke="#D85A30" stroke-width="1"/>
<text x="524" y="51" text-anchor="middle" font-size="13" font-weight="600" fill="#F0997B" font-family="Segoe UI, Arial, sans-serif">Azure SQL DB</text>
<text x="524" y="69" text-anchor="middle" font-size="10" fill="#D85A30" font-family="Segoe UI, Arial, sans-serif">spotify_initial_load.sql</text>

<!-- INGESTION -->
<rect x="155" y="112" width="370" height="52" rx="8" fill="#221a04" stroke="#BA7517" stroke-width="1"/>
<text x="340" y="133" text-anchor="middle" font-size="13" font-weight="600" fill="#FAC775" font-family="Segoe UI, Arial, sans-serif">Azure Data Factory</text>
<text x="340" y="151" text-anchor="middle" font-size="10" fill="#BA7517" font-family="Segoe UI, Arial, sans-serif">CDC (cdc.json) · ForEach (loop_input) · Watermark incremental load</text>

<!-- STORAGE -->
<!-- Bronze -->
<rect x="78" y="195" width="155" height="50" rx="8" fill="#041a12" stroke="#1D9E75" stroke-width="1"/>
<text x="155" y="215" text-anchor="middle" font-size="13" font-weight="600" fill="#5DCAA5" font-family="Segoe UI, Arial, sans-serif">Bronze</text>
<text x="155" y="233" text-anchor="middle" font-size="10" fill="#1D9E75" font-family="Segoe UI, Arial, sans-serif">Raw landing zone</text>

<!-- Silver -->
<rect x="263" y="195" width="155" height="50" rx="8" fill="#041a12" stroke="#1D9E75" stroke-width="1"/>
<text x="340" y="215" text-anchor="middle" font-size="13" font-weight="600" fill="#5DCAA5" font-family="Segoe UI, Arial, sans-serif">Silver</text>
<text x="340" y="233" text-anchor="middle" font-size="10" fill="#1D9E75" font-family="Segoe UI, Arial, sans-serif">Cleansed, conformed</text>

<!-- Gold -->
<rect x="448" y="195" width="155" height="50" rx="8" fill="#221a04" stroke="#BA7517" stroke-width="1"/>
<text x="525" y="215" text-anchor="middle" font-size="13" font-weight="600" fill="#FAC775" font-family="Segoe UI, Arial, sans-serif">Gold</text>
<text x="525" y="233" text-anchor="middle" font-size="10" fill="#BA7517" font-family="Segoe UI, Arial, sans-serif">Curated, BI-ready</text>

<!-- PROCESSING -->
<!-- Bronze NB -->
<rect x="78" y="276" width="155" height="50" rx="8" fill="#110d2a" stroke="#7F77DD" stroke-width="1"/>
<text x="155" y="296" text-anchor="middle" font-size="13" font-weight="600" fill="#AFA9EC" font-family="Segoe UI, Arial, sans-serif">Bronze NB</text>
<text x="155" y="314" text-anchor="middle" font-size="10" fill="#7F77DD" font-family="Segoe UI, Arial, sans-serif">Ingest &amp; validate</text>

<!-- Silver NB -->
<rect x="263" y="276" width="155" height="50" rx="8" fill="#110d2a" stroke="#7F77DD" stroke-width="1"/>
<text x="340" y="296" text-anchor="middle" font-size="13" font-weight="600" fill="#AFA9EC" font-family="Segoe UI, Arial, sans-serif">Silver NB</text>
<text x="340" y="314" text-anchor="middle" font-size="10" fill="#7F77DD" font-family="Segoe UI, Arial, sans-serif">Transform &amp; enrich</text>

<!-- Gold NB -->
<rect x="448" y="276" width="155" height="50" rx="8" fill="#110d2a" stroke="#7F77DD" stroke-width="1"/>
<text x="525" y="296" text-anchor="middle" font-size="13" font-weight="600" fill="#AFA9EC" font-family="Segoe UI, Arial, sans-serif">Gold NB</text>
<text x="525" y="314" text-anchor="middle" font-size="10" fill="#7F77DD" font-family="Segoe UI, Arial, sans-serif">Aggregate &amp; model</text>

<!-- SERVING -->
<rect x="240" y="357" width="200" height="40" rx="8" fill="#04142a" stroke="#378ADD" stroke-width="1"/>
<text x="340" y="381" text-anchor="middle" font-size="13" font-weight="600" fill="#85B7EB" font-family="Segoe UI, Arial, sans-serif">Power BI</text>

<!-- CI/CD -->
<!-- GitHub -->
<rect x="78" y="426" width="155" height="50" rx="8" fill="#141414" stroke="#444441" stroke-width="1"/>
<text x="155" y="446" text-anchor="middle" font-size="13" font-weight="600" fill="#B4B2A9" font-family="Segoe UI, Arial, sans-serif">GitHub</text>
<text x="155" y="464" text-anchor="middle" font-size="10" fill="#5F5E5A" font-family="Segoe UI, Arial, sans-serif">Source control</text>

<!-- Azure Pipelines -->
<rect x="263" y="426" width="155" height="50" rx="8" fill="#141414" stroke="#444441" stroke-width="1"/>
<text x="340" y="446" text-anchor="middle" font-size="13" font-weight="600" fill="#B4B2A9" font-family="Segoe UI, Arial, sans-serif">Azure Pipelines</text>
<text x="340" y="464" text-anchor="middle" font-size="10" fill="#5F5E5A" font-family="Segoe UI, Arial, sans-serif">Build &amp; deploy</text>

<!-- Databricks Repos -->
<rect x="448" y="426" width="155" height="50" rx="8" fill="#141414" stroke="#444441" stroke-width="1"/>
<text x="525" y="446" text-anchor="middle" font-size="13" font-weight="600" fill="#B4B2A9" font-family="Segoe UI, Arial, sans-serif">Databricks Repos</text>
<text x="525" y="464" text-anchor="middle" font-size="10" fill="#5F5E5A" font-family="Segoe UI, Arial, sans-serif">Git-synced notebooks</text>

<!-- ARROWS -->
<!-- Spotify API → ADF -->
<path d="M155 81 L155 92 L265 92 L265 112" fill="none" stroke="#333" stroke-width="1.5" marker-end="url(#arrow)"/>
<!-- SQL DB → ADF -->
<path d="M524 81 L524 92 L415 92 L415 112" fill="none" stroke="#333" stroke-width="1.5" marker-end="url(#arrow)"/>
<!-- ADF → Bronze -->
<path d="M340 164 L340 179 L155 179 L155 195" fill="none" stroke="#333" stroke-width="1.5" marker-end="url(#arrow)"/>
<!-- Bronze → Silver -->
<line x1="233" y1="220" x2="263" y2="220" stroke="#333" stroke-width="1.5" marker-end="url(#arrow)"/>
<!-- Silver → Gold -->
<line x1="418" y1="220" x2="448" y2="220" stroke="#333" stroke-width="1.5" marker-end="url(#arrow)"/>
<!-- Bronze storage → Bronze NB -->
<line x1="155" y1="245" x2="155" y2="276" stroke="#333" stroke-width="1.5" marker-end="url(#arrow)"/>
<!-- Silver storage → Silver NB -->
<line x1="340" y1="245" x2="340" y2="276" stroke="#333" stroke-width="1.5" marker-end="url(#arrow)"/>
<!-- Gold storage → Gold NB -->
<line x1="525" y1="245" x2="525" y2="276" stroke="#333" stroke-width="1.5" marker-end="url(#arrow)"/>
<!-- Bronze NB → Silver NB -->
<line x1="233" y1="301" x2="263" y2="301" stroke="#333" stroke-width="1.5" marker-end="url(#arrow)"/>
<!-- Silver NB → Gold NB -->
<line x1="418" y1="301" x2="448" y2="301" stroke="#333" stroke-width="1.5" marker-end="url(#arrow)"/>
<!-- Gold NB → Power BI -->
<path d="M525 326 L525 340 L340 340 L340 357" fill="none" stroke="#333" stroke-width="1.5" marker-end="url(#arrow)"/>
<!-- GitHub → Azure Pipelines -->
<line x1="233" y1="451" x2="263" y2="451" stroke="#333" stroke-width="1.5" marker-end="url(#arrow)"/>
<!-- Azure Pipelines → Databricks Repos -->
<line x1="418" y1="451" x2="448" y2="451" stroke="#333" stroke-width="1.5" marker-end="url(#arrow)"/>
<!-- Databricks Repos → Notebooks (dashed deploy) -->
<path d="M525 426 L525 406 L635 406 L635 301 L603 301" fill="none" stroke="#2a2a2a" stroke-width="1" stroke-dasharray="4 3" marker-end="url(#arrow)"/>

<!-- Legend -->
<line x1="44" y1="497" x2="68" y2="497" stroke="#333" stroke-width="1.5" marker-end="url(#arrow)"/>
<text x="74" y="501" font-size="10" fill="#444" font-family="Segoe UI, Arial, sans-serif">Data flow</text>
<line x1="140" y1="497" x2="164" y2="497" stroke="#2a2a2a" stroke-width="1" stroke-dasharray="4 3" marker-end="url(#arrow)"/>
<text x="170" y="501" font-size="10" fill="#444" font-family="Segoe UI, Arial, sans-serif">Deploy / sync</text>
</svg>
